/* XPM */
static char * new_logo_xpm[] = {
"39 34 186 2",
"  	c None",
". 	c #E9E5E8",
"+ 	c #C3B9C2",
"@ 	c #E6E2E5",
"# 	c #8E7B8C",
"$ 	c #2C0929",
"% 	c #1C0019",
"& 	c #381735",
"* 	c #6D546B",
"= 	c #2B0828",
"- 	c #240021",
"; 	c #230020",
"> 	c #1F001C",
", 	c #897688",
"' 	c #B3A6B1",
") 	c #462743",
"! 	c #1D001A",
"~ 	c #21001E",
"{ 	c #22001F",
"] 	c #816C7F",
"^ 	c #988797",
"/ 	c #ADA0AC",
"( 	c #371635",
"_ 	c #290626",
": 	c #847083",
"< 	c #E1DDE1",
"[ 	c #371634",
"} 	c #50344E",
"| 	c #776176",
"1 	c #573B55",
"2 	c #1B0018",
"3 	c #E2DDE1",
"4 	c #6C546B",
"5 	c #CFC7CE",
"6 	c #32102F",
"7 	c #41223E",
"8 	c #644A62",
"9 	c #9A8998",
"0 	c #190016",
"a 	c #725B70",
"b 	c #664D64",
"c 	c #6B5269",
"d 	c #B7ABB6",
"e 	c #A192A0",
"f 	c #674F66",
"g 	c #41233F",
"h 	c #160012",
"i 	c #8B788A",
"j 	c #685067",
"k 	c #4C2F4A",
"l 	c #341231",
"m 	c #695168",
"n 	c #634961",
"o 	c #5C425A",
"p 	c #6B536A",
"q 	c #E7E7E7",
"r 	c #D2D2D2",
"s 	c #C3C3C3",
"t 	c #C6C6C6",
"u 	c #7C677B",
"v 	c #8B798A",
"w 	c #280425",
"x 	c #766275",
"y 	c #DFE0DF",
"z 	c #B5B5B5",
"A 	c #B7B7B7",
"B 	c #B8B8B8",
"C 	c #B6B6B6",
"D 	c #CDC4CB",
"E 	c #958393",
"F 	c #9A9299",
"G 	c #BBBCBB",
"H 	c #B9B9B9",
"I 	c #D1D1D1",
"J 	c #260323",
"K 	c #B3A6B2",
"L 	c #CFCFCF",
"M 	c #563A53",
"N 	c #847783",
"O 	c #BCBCBC",
"P 	c #BBB0BA",
"Q 	c #DDDDDD",
"R 	c #3E1E3C",
"S 	c #746372",
"T 	c #BABABA",
"U 	c #D4CDD3",
"V 	c #836E81",
"W 	c #9C8C9B",
"X 	c #1E001B",
"Y 	c #6A5768",
"Z 	c #D2CBD1",
"` 	c #3C1B39",
" .	c #280525",
"..	c #A697A5",
"+.	c #3E1E3B",
"@.	c #4E354C",
"#.	c #BEBFBE",
"$.	c #4A2D48",
"%.	c #140011",
"&.	c #CBC2CA",
"*.	c #300F2D",
"=.	c #C1C3C1",
"-.	c #826E80",
";.	c #180015",
">.	c #C0C1C0",
",.	c #20001D",
"'.	c #ECE9EC",
").	c #270424",
"!.	c #968D94",
"~.	c #B8ADB7",
"{.	c #665164",
"].	c #482A46",
"^.	c #42253F",
"/.	c #2E0C2B",
"(.	c #240121",
"_.	c #BDBFBE",
":.	c #371734",
"<.	c #2D0A2A",
"[.	c #D1C9D0",
"}.	c #705E6E",
"|.	c #472D46",
"1.	c #B4A8B3",
"2.	c #150012",
"3.	c #130010",
"4.	c #472844",
"5.	c #300D2D",
"6.	c #1A0017",
"7.	c #31112F",
"8.	c #897E88",
"9.	c #7D687B",
"0.	c #170013",
"a.	c #371735",
"b.	c #7E697C",
"c.	c #CCC3CB",
"d.	c #C9CBC9",
"e.	c #BFC1BF",
"f.	c #AEACAE",
"g.	c #A6A1A5",
"h.	c #887D87",
"i.	c #756574",
"j.	c #604A5E",
"k.	c #3F213C",
"l.	c #ACAAAC",
"m.	c #BDBEBD",
"n.	c #21001F",
"o.	c #250122",
"p.	c #EEEBED",
"q.	c #583D56",
"r.	c #70596E",
"s.	c #E6E1E5",
"t.	c #B9BAB9",
"u.	c #C0C2C0",
"v.	c #C9CDC9",
"w.	c #B2B1B2",
"x.	c #827581",
"y.	c #726070",
"z.	c #BABBBA",
"A.	c #50374F",
"B.	c #A99BA8",
"C.	c #3B1B39",
"D.	c #593E57",
"E.	c #D6D6D6",
"F.	c #EAEAEA",
"G.	c #AD9FAB",
"H.	c #41243F",
"I.	c #644F62",
"J.	c #ADABAD",
"K.	c #B4B3B4",
"L.	c #B5B4B5",
"M.	c #8C828B",
"N.	c #2D0B2A",
"O.	c #978595",
"P.	c #DADADA",
"Q.	c #E5E5E5",
"R.	c #654D64",
"S.	c #351432",
"T.	c #A1929F",
"U.	c #EDEAEC",
"V.	c #EDEAED",
"W.	c #E2DEE1",
"X.	c #A495A3",
"Y.	c #70596F",
"Z.	c #C8BFC8",
"`.	c #DBDBDB",
" +	c #5B3F58",
".+	c #D1CAD0",
"                                                        . +                   ",
"                                                  @ # $ % &                   ",
"                                              * = - ; ; > ,                   ",
"                                        ' ) ! ~ - - - { ] ^                   ",
"                                    / ( % - - - - - - _   :                   ",
"                                < [ ~ - - - - - - - { }   |                   ",
"                              1 ; ; - - - - - - - - 2 3   4                   ",
"                          5 6 { - - - - - - - - - - 7     8                   ",
"                        9 0 - - - - - - - - - - - ; a   5 b                   ",
"                      c ! - - - - - - - - - - - - % d   e f                   ",
"                    g ; - - - - - - - - - - - - - h     i j                   ",
"                  k ; - - - - - - - - - - - - - - l     b m                   ",
"                n ~ - - - - - - - - - - - - - - - o     = p     q r s t       ",
"              u ! - - - - - - - - - - - - - - - - v     w x y z A B C         ",
"            D { - - - - - - - - - - - - - - - - - E     F G B H H B I         ",
"            J ; - - - - - - - - - - - - - - - - - K L H H B H H H C           ",
"          M - - - - - - - - - - - - - - - - - - - N A H H H H H H O           ",
"        P ! - - - - - - - - - - - - - - - - - - - N B H H H H H H Q           ",
"        R - - - - - - - - - - - - - - - - - - - - S T H H H H H H         U V ",
"      W X - - - - - - - - - - - - - - - - - - - - Y G H H H H H H   Z `  .{ ..",
"      +.- - - - - - - - - - - - - - - - - - - - - @.#.H H H H H H $.X ; - %.  ",
"    &.! - - - - - - - - - - - - - - - - - - - - - *.=.H H H H H H  .- - ; -.  ",
"    +.; - - - - - - - - - - - - - - - - - - - - - ;.>.H H H H H H ,.- - ; '.  ",
"    ).- - - - - - - - - - - - - - - - - - - - - - ! !.H H H H H H J - -  .    ",
"  ~.; - - - - - - - - - - - - - - - - - - - - - - { {.B H H H H H  .- - =     ",
"  ].; - - - - - - - - - - - - - - - - - - - - - - - ^.O H H H H H /.- - $     ",
"  ;.- - - - - - - - - - - - - - - - - - - - - - - - (._.H H H H H :.- - <.    ",
"[.> - - - - - - - - - - - ; ; ; - - - - - - - - - - ~ }.H H H H H |.; - =     ",
"1.; - - - - - ~ X 0 ;.2.3.& 4.5.;.6.% ! > ~ - - - - ; 7.A H H H H 8.> - _     ",
"9.- - { 0.a.b.d c.'.            d.e.f.g.F h.i.j.k.~ 2 > l.H H H H m.n.- o.p.  ",
"q.{ = r.s.                      A H H H B A A t.u.v.w.x.y.#.z.H H O A.; ; B.  ",
"C.D.                            A B T O E.F.    G.;.X ~ H.I.N J.K.L.M.X ; N.  ",
"O.                            P.z Q.            R.% S.T.@ U.V.U.    W.X.Y.0 Z.",
"                              `.                 +.+                          "};
