/* XPM */
static char * sparforte_icon_xpm[] = {
"26 32 96 2",
"  	c None",
". 	c #9C9C9C",
"+ 	c #6D6D6D",
"@ 	c #5C5C5C",
"# 	c #6B6B6B",
"$ 	c #5F5F5F",
"% 	c #090909",
"& 	c #000000",
"* 	c #3E3E3E",
"= 	c #7E7E7E",
"- 	c #4F4F4F",
"; 	c #0B0B0B",
"> 	c #ADADAD",
", 	c #202020",
"' 	c #010101",
") 	c #929292",
"! 	c #666666",
"~ 	c #050505",
"{ 	c #4B4B4B",
"] 	c #A6A6A6",
"^ 	c #1C1C1C",
"/ 	c #6F6F6F",
"( 	c #525252",
"_ 	c #040404",
": 	c #030303",
"< 	c #262626",
"[ 	c #2E2E2E",
"} 	c #020202",
"| 	c #121212",
"1 	c #767676",
"2 	c #070707",
"3 	c #545454",
"4 	c #676767",
"5 	c #727272",
"6 	c #0C0C0C",
"7 	c #060606",
"8 	c #151515",
"9 	c #8E8E8E",
"0 	c #ACACAC",
"a 	c #535353",
"b 	c #4C4C4C",
"c 	c #BBBBBB",
"d 	c #3C3C3C",
"e 	c #222222",
"f 	c #858585",
"g 	c #606060",
"h 	c #E5E5E5",
"i 	c #A8A8A8",
"j 	c #AAAAAA",
"k 	c #ABABAB",
"l 	c #959595",
"m 	c #363636",
"n 	c #9A9A9A",
"o 	c #A5A5A5",
"p 	c #B2B2B2",
"q 	c #393939",
"r 	c #171717",
"s 	c #323232",
"t 	c #3B3B3B",
"u 	c #717171",
"v 	c #404040",
"w 	c #757575",
"x 	c #8C8C8C",
"y 	c #2D2D2D",
"z 	c #E2E2E2",
"A 	c #5B5B5B",
"B 	c #272727",
"C 	c #9B9B9B",
"D 	c #A7A7A7",
"E 	c #2B2B2B",
"F 	c #787878",
"G 	c #414141",
"H 	c #0A0A0A",
"I 	c #919191",
"J 	c #575757",
"K 	c #212121",
"L 	c #636363",
"M 	c #252525",
"N 	c #B4B4B4",
"O 	c #1A1A1A",
"P 	c #E3E3E3",
"Q 	c #494949",
"R 	c #747474",
"S 	c #7B7B7B",
"T 	c #454545",
"U 	c #555555",
"V 	c #A9A9A9",
"W 	c #969696",
"X 	c #161616",
"Y 	c #A2A2A2",
"Z 	c #0D0D0D",
"` 	c #1B1B1B",
" .	c #696969",
"..	c #080808",
"+.	c #888888",
"@.	c #9F9F9F",
"                                        . + @ #     ",
"                                    $ % & * = - ;   ",
"                                > , & ' )     ! ~ { ",
"                              ] ^ & & /     ( _ : < ",
"                              [ & } |     1 2 _ ' 3 ",
"                            3 & _ & 4     5 6 7 8   ",
"                          9 6 } _ & 0       a b c   ",
"                          d & ~ & e                 ",
"                        f } : ~ & g h               ",
"                i j k l m & ~ ~ & a n o i p         ",
"              i m * q r & ~ ~ : 6 s d t d {         ",
"                      u & ~ ~ & m                   ",
"                      v & ~ ~ & w                   ",
"                    p | ' ~ : & i                   ",
"                    x & _ ~ & y                     ",
"                  z A & ~ ~ & !                     ",
"                    B & ~ : & C                     ",
"                  D & : ~ & E                       ",
"                  F & ~ ~ & !                       ",
"                  G & ~ : 2 C                       ",
"                  H } ~ & q                         ",
"                I & _ _ & 1                         ",
"              z J & ~ & K p                         ",
"                8 ' _ & L                           ",
"              C & _ & M N                           ",
"  q O < C   P Q & : _ R                             ",
"S } } _ G     & _ & T z                             ",
"m : _ 7 a   U & & E                                 ",
"t : _ K   V & & ^ j                                 ",
"W & X   Y Z & ` V                                   ",
"   .& ..~ 2 a                                       ",
"    N +.@.                                          "};
